<svg xmlns="http://www.w3.org/2000/svg" xmlns:xlink="http://www.w3.org/1999/xlink" viewBox="0 0 105.3 210.6"><defs><linearGradient id="a" x1="55.54" y1="253.76" x2="55.54" y2="99.38" gradientUnits="userSpaceOnUse"><stop offset="0" stop-color="#002"/><stop offset="1"/></linearGradient></defs><path d="M54.08,208.82l-4.15-15,1.15-12.72-1.72-7.86L39.85,167c-2.63.44-6,1.08-6.5,1.53-7,17.11-9.64,29-9.2,42.08H54.32Z" style="fill:#fff"/><path d="M86.42,210.6A177.31,177.31,0,0,0,81,175.21c-4.64-22.33-19.09-37-28.39-37.27-5.66-.19-14,4.07-16.27,4,1.2.23,7.66,1.12,8.12,4a5.42,5.42,0,0,1-3.83,5.46c-3.5.87-5.48-4-11.75-4.5a28.38,28.38,0,0,0-4.26.15c2.78,2.24,7.07,4.53,9.12,6.61,1.44,1.46,5.59,13.29,5.79,13.15l.28.18,9.51,6.25,1.72,7.86-1.15,12.72,4.15,15,.24,1.78" style="fill:url(#a)"/><path d="M28.92,146.9c6.27.53,8.25,5.37,11.75,4.5a5.42,5.42,0,0,0,3.83-5.46c-.46-2.9-6.92-3.79-8.12-4l-.1,0-13.44-.29c-2.4,2.85,1.15,4.86,1.79,5.43h0A28.38,28.38,0,0,1,28.92,146.9Z" style="fill:#d72318"/><rect width="105.3" height="210.6" style="fill:none;opacity:0"/></svg>