<svg xmlns="http://www.w3.org/2000/svg" viewBox="0 0 80.66 22.48"><path d="M72.85,10.38c1.75-.06,6.78-2.78,4.71-.43a6.63,6.63,0,0,1,1.49,0c.87.08-.35.87-.35.87,8.36,1.24-12.76,4.55-12.92,4.89a58.89,58.89,0,0,1-27.53,6.83c-22.08.1-21.91-9.25-29.63-13.38C7,8.38,5.22,6,4.87,5.58s-2-.61-3.14-.52-1.4.87-1.66.61.18-1,1.4-1.48h0a17.55,17.55,0,0,1,3.84-.53c3.87-7.49,12.81-.11,19.11,1.23,2.53.69,7.94-.7,14.4-.27C42.34,6.05,49.92-.91,51,.17c.62.56,1.24,2.58-2.5,6C60.66,9.26,63.8,2,70.52.52c.82-.18-2.7,4.47-2.21,7.33C68.53,9.13,71.55,10.43,72.85,10.38Z" style="fill:#FFFFFF"/></svg>
